<?xml version="1.0" encoding="utf-8"?>

<!DOCTYPE svg PUBLIC "-//W3C//DTD SVG 1.1//EN" "http://www.w3.org/Graphics/SVG/1.1/DTD/svg11.dtd">
<svg version="1.1" id="Layer_1" xmlns="http://www.w3.org/2000/svg" xmlns:xlink="http://www.w3.org/1999/xlink" x="0px" y="0px"
	  viewBox="0 0 1682 1682" enable-background="new 0 0 1682 1682" xml:space="preserve">
<g id="Arrow_26">
	<g>
		<g>
			<polygon fill="#231F20" points="923.363,635.057 923.363,337.131 1011.733,337.131 840.987,41 670.267,337.131 758.637,337.131 
				758.637,635.057 			"/>
		</g>
		<g>
			<polygon fill="#231F20" points="753.616,637.137 542.95,426.471 605.437,363.984 275.306,275.324 363.984,605.437 
				426.472,542.95 637.137,753.616 			"/>
		</g>
		<g>
			<polygon fill="#231F20" points="635.057,758.637 337.131,758.637 337.131,670.267 41,841.013 337.131,1011.733 337.131,923.363 
				635.057,923.363 			"/>
		</g>
		<g>
			<polygon fill="#231F20" points="637.137,928.384 426.471,1139.05 363.984,1076.563 275.324,1406.694 605.437,1318.016 
				542.95,1255.528 753.616,1044.863 			"/>
		</g>
		<g>
			<polygon fill="#231F20" points="758.637,1046.943 758.637,1344.869 670.267,1344.869 841.013,1641 1011.733,1344.869 
				923.363,1344.869 923.363,1046.943 			"/>
		</g>
		<g>
			<polygon fill="#231F20" points="928.384,1044.863 1139.05,1255.529 1076.563,1318.016 1406.694,1406.677 1318.016,1076.563 
				1255.528,1139.05 1044.863,928.384 			"/>
		</g>
		<g>
			<polygon fill="#231F20" points="1046.943,923.363 1344.869,923.363 1344.869,1011.733 1641,840.987 1344.869,670.267 
				1344.869,758.637 1046.943,758.637 			"/>
		</g>
		<g>
			<polygon fill="#231F20" points="1044.863,753.616 1255.529,542.95 1318.016,605.437 1406.677,275.306 1076.563,363.984 
				1139.05,426.472 928.384,637.137 			"/>
		</g>
	</g>
</g>
</svg>
